<?xml version="1.0" encoding="utf-8"?>
<!-- Generator: Adobe Illustrator 22.1.0, SVG Export Plug-In . SVG Version: 6.00 Build 0)  -->
<svg version="1.1" id="bluestepLogo" xmlns="http://www.w3.org/2000/svg" xmlns:xlink="http://www.w3.org/1999/xlink" x="0px"
	 y="0px" width="48px" height="48px" viewBox="0 0 48 48" enable-background="new 0 0 48 48" xml:space="preserve">
<path id="foreColor" fill="#FFFFFF" d="M14.4,3c-3.8,0-6.8,3.1-6.8,6.8c0,1,0.2,1.9,0.6,2.8c-4.9,5.3-6.1,13.1-3,19.7
	c0.3,0.7,0.7,1.3,1.2,2c-0.8,1.1-1.2,2.5-1.2,3.9c0,3.8,3.1,6.8,6.8,6.8c2.2,0,4.3-1.1,5.5-2.8c1.3,0.3,2.6,0.4,3.9,0.4
	c2.6,0,5.2-0.6,7.6-1.7c3.6-1.7,6.5-4.5,8.3-8c0.2,0,0.3,0,0.5,0c3.8,0,6.8-3.1,6.8-6.8c0-3.5-2.7-6.4-6.1-6.8
	c-0.2-0.8-0.5-1.5-0.9-2.2c-2.9-6.3-9.3-10.3-16.2-10.3c-0.3,0-0.5,0-0.8,0C19.4,4.5,17,3,14.4,3L14.4,3z M21.3,17.9
	c3.7,0,6.8,3,6.8,6.8s-3,6.8-6.8,6.8s-6.8-3-6.8-6.8S17.6,17.9,21.3,17.9"/>
<path id="backColor" d="M13.1,23.2l-8.1-0.7c0.4-3.2,1.8-6.2,3.9-8.6c1.2,1.6,3.2,2.7,5.4,2.7c3.8,0,6.8-3.1,6.8-6.8
	c0-0.5-0.1-1-0.2-1.5c0.1,0,0.2,0,0.3,0c3.1,0,6.2,0.9,8.8,2.6l-4.6,6.6c-1.2-0.7-2.7-1.1-4.2-1.1c-1.2,0-2.4,0.3-3.5,0.8
	c-2,0.9-3.6,2.6-4.3,4.7C13.3,22.3,13.2,22.8,13.1,23.2z M19.5,8.4c-0.6-2.2-2.7-3.9-5.1-3.9c-2.9,0-5.3,2.4-5.3,5.3
	c0,1.1,0.4,2.2,0.9,3c1,1.4,2.6,2.3,4.4,2.3c2.9,0,5.3-2.4,5.3-5.3C19.7,9.3,19.6,8.8,19.5,8.4z M30.9,26.1c0-3.5,2.6-6.3,6-6.7
	c-0.2-0.6-0.4-1.1-0.7-1.6c-1.2-2.5-2.9-4.5-4.9-6l-4.6,6.6c0.9,0.8,1.7,1.7,2.2,2.9c0.9,2,1,4.3,0.3,6.4c-0.7,1.9-2,3.4-3.7,4.3
	l3.4,7.3c3-1.5,5.3-3.9,6.8-6.6C32.9,31.7,30.9,29.2,30.9,26.1z M37.7,20.8c-0.1,0-0.3,0-0.4,0c-2.7,0.2-4.9,2.5-4.9,5.3
	c0,2.5,1.7,4.5,4,5.1c0.4,0.1,0.9,0.2,1.4,0.2c2.9,0,5.3-2.4,5.3-5.3S40.7,20.8,37.7,20.8z M21.3,33c-3.2,0-6.2-1.9-7.6-4.8
	c-0.5-1.1-0.8-2.3-0.8-3.5L4.9,24c-0.1,2.5,0.4,5.2,1.5,7.6c0.3,0.5,0.6,1,0.9,1.5c1.2-1.1,2.8-1.8,4.6-1.8c3.8,0,6.8,3.1,6.8,6.8
	c0,0.9-0.2,1.8-0.5,2.6c1,0.2,2.1,0.3,3.2,0.3c2.1,0,4.2-0.4,6.2-1.3l-3.4-7.3C23.2,32.8,22.3,33,21.3,33z M11.9,32.8
	c-1.5,0-2.8,0.6-3.8,1.6c-1,1-1.6,2.3-1.6,3.8c0,2.9,2.4,5.3,5.3,5.3c2.1,0,4-1.3,4.8-3.1c0.3-0.7,0.5-1.5,0.5-2.3
	C17.2,35.2,14.8,32.8,11.9,32.8z"/>
</svg>
